<mxfile host="65bd71144e" modified="2020-11-10T04:35:48.004Z" agent="5.0 (Macintosh; Intel Mac OS X 10_15_5) AppleWebKit/537.36 (KHTML, like Gecko) Code/1.51.0 Chrome/83.0.4103.122 Electron/9.3.3 Safari/537.36" version="13.6.5" etag="Pt5KQsTmw0fRW1cdrRax">
    <diagram id="ItfJSxPSf-aXiFsPB5I5" name="Page-1">
        <mxGraphModel dx="674" dy="742" grid="1" gridSize="10" guides="1" tooltips="1" connect="1" arrows="1" fold="1" page="1" pageScale="1" pageWidth="850" pageHeight="1100" background="#ffffff" math="0" shadow="0">
            <root>
                <mxCell id="0"/>
                <mxCell id="1" parent="0"/>
                <mxCell id="34" value="" style="whiteSpace=wrap;html=1;aspect=fixed;labelBackgroundColor=none;strokeColor=#FFFFFF;fillColor=#FFFFFF;fontFamily=Helvetica;fontSize=16;fontColor=#171717;" vertex="1" parent="1">
                    <mxGeometry x="240" y="70" width="430" height="430" as="geometry"/>
                </mxCell>
                <mxCell id="27" style="edgeStyle=orthogonalEdgeStyle;rounded=0;orthogonalLoop=1;jettySize=auto;html=1;exitX=0.387;exitY=0.956;exitDx=0;exitDy=0;entryX=0.625;entryY=-0.067;entryDx=0;entryDy=0;entryPerimeter=0;labelBackgroundColor=none;fontFamily=Helvetica;fontSize=16;fillColor=#1ba1e2;strokeColor=#006EAF;exitPerimeter=0;" edge="1" parent="1" source="4" target="13">
                    <mxGeometry relative="1" as="geometry">
                        <Array as="points">
                            <mxPoint x="560" y="290"/>
                            <mxPoint x="480" y="290"/>
                        </Array>
                    </mxGeometry>
                </mxCell>
                <mxCell id="29" style="edgeStyle=orthogonalEdgeStyle;rounded=0;orthogonalLoop=1;jettySize=auto;html=1;exitX=0.25;exitY=1;exitDx=0;exitDy=0;labelBackgroundColor=none;fontFamily=Helvetica;fontSize=16;fillColor=#e51400;strokeColor=#B20000;" edge="1" parent="1" source="4" target="12">
                    <mxGeometry relative="1" as="geometry"/>
                </mxCell>
                <mxCell id="4" value="&lt;p style=&quot;margin: 0px 0px 20px; font-size: 16px; font-style: normal; letter-spacing: normal; text-indent: 0px; text-transform: none; word-spacing: 0px;&quot;&gt;&lt;font color=&quot;#cc3524&quot; style=&quot;font-size: 16px;&quot;&gt;[24,42,&lt;/font&gt;&lt;font color=&quot;#126994&quot; style=&quot;font-size: 16px;&quot;&gt;16&lt;/font&gt;&lt;font color=&quot;#cc0000&quot; style=&quot;font-size: 16px;&quot;&gt;]&lt;/font&gt;&lt;/p&gt;" style="text;whiteSpace=wrap;html=1;fontSize=16;labelBackgroundColor=none;labelBorderColor=none;fontStyle=0;fontFamily=Helvetica;" vertex="1" parent="1">
                    <mxGeometry x="500" y="240" width="155" height="30" as="geometry"/>
                </mxCell>
                <mxCell id="24" style="edgeStyle=orthogonalEdgeStyle;rounded=0;orthogonalLoop=1;jettySize=auto;html=1;exitX=0.5;exitY=1;exitDx=0;exitDy=0;entryX=0.5;entryY=-0.217;entryDx=0;entryDy=0;entryPerimeter=0;labelBackgroundColor=none;fontFamily=Helvetica;fontSize=16;fillColor=#1ba1e2;strokeColor=#006EAF;" edge="1" parent="1" source="5" target="14">
                    <mxGeometry relative="1" as="geometry"/>
                </mxCell>
                <mxCell id="25" style="edgeStyle=orthogonalEdgeStyle;rounded=0;orthogonalLoop=1;jettySize=auto;html=1;exitX=0.25;exitY=1;exitDx=0;exitDy=0;entryX=0.667;entryY=-0.217;entryDx=0;entryDy=0;entryPerimeter=0;labelBackgroundColor=none;fontFamily=Helvetica;fontSize=16;fillColor=#e51400;strokeColor=#B20000;" edge="1" parent="1" source="5" target="15">
                    <mxGeometry relative="1" as="geometry"/>
                </mxCell>
                <mxCell id="5" value="&lt;p style=&quot;margin: 0px 0px 20px; font-size: 16px; font-style: normal; letter-spacing: normal; text-indent: 0px; text-transform: none; word-spacing: 0px;&quot;&gt;&lt;font color=&quot;#cc0000&quot; style=&quot;font-size: 16px;&quot;&gt;[8,&lt;/font&gt;&lt;font color=&quot;#126994&quot; style=&quot;font-size: 16px;&quot;&gt;4&lt;/font&gt;&lt;font color=&quot;#cc0000&quot; style=&quot;font-size: 16px;&quot;&gt;]&lt;/font&gt;&lt;/p&gt;" style="text;whiteSpace=wrap;html=1;fontSize=16;labelBackgroundColor=none;labelBorderColor=none;fontStyle=0;fontFamily=Helvetica;" vertex="1" parent="1">
                    <mxGeometry x="290" y="240" width="60" height="30" as="geometry"/>
                </mxCell>
                <mxCell id="8" style="edgeStyle=orthogonalEdgeStyle;rounded=0;orthogonalLoop=1;jettySize=auto;html=1;exitX=0.25;exitY=1;exitDx=0;exitDy=0;entryX=0.869;entryY=-0.139;entryDx=0;entryDy=0;entryPerimeter=0;fontSize=16;labelBackgroundColor=none;labelBorderColor=none;fontStyle=0;fontFamily=Helvetica;" edge="1" parent="1">
                    <mxGeometry relative="1" as="geometry">
                        <mxPoint x="490" y="110" as="sourcePoint"/>
                        <mxPoint x="469.69499999999994" y="185.83000000000004" as="targetPoint"/>
                    </mxGeometry>
                </mxCell>
                <mxCell id="26" style="edgeStyle=orthogonalEdgeStyle;rounded=0;orthogonalLoop=1;jettySize=auto;html=1;exitX=0.5;exitY=1;exitDx=0;exitDy=0;entryX=0.525;entryY=0.033;entryDx=0;entryDy=0;entryPerimeter=0;labelBackgroundColor=none;fontFamily=Helvetica;fontSize=16;fillColor=#1ba1e2;strokeColor=#006EAF;" edge="1" parent="1" source="9" target="16">
                    <mxGeometry relative="1" as="geometry"/>
                </mxCell>
                <mxCell id="9" value="&lt;p style=&quot;margin: 0px 0px 20px; font-size: 16px; font-style: normal; letter-spacing: normal; text-indent: 0px; text-transform: none; word-spacing: 0px;&quot;&gt;&lt;code class=&quot;language-plaintext highlighter-rouge&quot; style=&quot;font-size: 16px; margin: 0px 4px; padding: 2px 6px; border-radius: 2px; border-bottom: 1px solid rgb(204, 53, 36); border-right: 1px solid rgb(204, 53, 36);&quot;&gt;&lt;font color=&quot;#126994&quot; style=&quot;font-size: 16px;&quot;&gt;[15]&lt;/font&gt;&lt;/code&gt;&lt;/p&gt;" style="text;whiteSpace=wrap;html=1;fontSize=16;labelBackgroundColor=none;labelBorderColor=none;fontStyle=0;fontFamily=Helvetica;" vertex="1" parent="1">
                    <mxGeometry x="395" y="240" width="60" height="30" as="geometry"/>
                </mxCell>
                <mxCell id="12" value="&lt;font color=&quot;#cc0000&quot; style=&quot;font-size: 16px;&quot;&gt;[23,42]&lt;/font&gt;" style="text;html=1;align=center;verticalAlign=middle;resizable=0;points=[];autosize=1;fontSize=16;labelBackgroundColor=none;labelBorderColor=none;fontStyle=0;fontFamily=Helvetica;" vertex="1" parent="1">
                    <mxGeometry x="560" y="330" width="60" height="20" as="geometry"/>
                </mxCell>
                <mxCell id="13" value="&lt;font color=&quot;#126994&quot; style=&quot;font-size: 16px;&quot;&gt;[16]&lt;/font&gt;" style="text;html=1;align=center;verticalAlign=middle;resizable=0;points=[];autosize=1;fontSize=16;labelBackgroundColor=none;labelBorderColor=none;fontStyle=0;fontFamily=Helvetica;" vertex="1" parent="1">
                    <mxGeometry x="455" y="330" width="40" height="20" as="geometry"/>
                </mxCell>
                <mxCell id="14" value="&lt;font color=&quot;#126994&quot; style=&quot;font-size: 16px;&quot;&gt;[4]&lt;/font&gt;" style="text;html=1;align=center;verticalAlign=middle;resizable=0;points=[];autosize=1;fontSize=16;labelBackgroundColor=none;labelBorderColor=none;fontStyle=0;fontFamily=Helvetica;" vertex="1" parent="1">
                    <mxGeometry x="250" y="320" width="30" height="20" as="geometry"/>
                </mxCell>
                <mxCell id="15" value="&lt;font color=&quot;#cc0000&quot; style=&quot;font-size: 16px;&quot;&gt;[8]&lt;/font&gt;" style="text;html=1;align=center;verticalAlign=middle;resizable=0;points=[];autosize=1;fontSize=16;labelBackgroundColor=none;labelBorderColor=none;fontStyle=0;fontFamily=Helvetica;" vertex="1" parent="1">
                    <mxGeometry x="320" y="320" width="30" height="20" as="geometry"/>
                </mxCell>
                <mxCell id="16" value="&lt;font color=&quot;#126994&quot; style=&quot;font-size: 16px;&quot;&gt;[15]&lt;/font&gt;" style="text;html=1;align=center;verticalAlign=middle;resizable=0;points=[];autosize=1;fontSize=16;labelBackgroundColor=none;labelBorderColor=none;fontStyle=0;fontFamily=Helvetica;" vertex="1" parent="1">
                    <mxGeometry x="410" y="330" width="40" height="20" as="geometry"/>
                </mxCell>
                <mxCell id="19" style="edgeStyle=orthogonalEdgeStyle;rounded=0;orthogonalLoop=1;jettySize=auto;html=1;exitX=0.25;exitY=0;exitDx=0;exitDy=0;entryX=0.5;entryY=0;entryDx=0;entryDy=0;labelBackgroundColor=none;fontFamily=Helvetica;fontSize=16;" edge="1" parent="1" source="9" target="9">
                    <mxGeometry relative="1" as="geometry"/>
                </mxCell>
                <mxCell id="21" style="edgeStyle=orthogonalEdgeStyle;rounded=0;orthogonalLoop=1;jettySize=auto;html=1;entryX=0.25;entryY=0;entryDx=0;entryDy=0;labelBackgroundColor=none;fontFamily=Helvetica;fontSize=16;fillColor=#e51400;strokeColor=#B20000;exitX=0.557;exitY=1.183;exitDx=0;exitDy=0;exitPerimeter=0;" edge="1" parent="1" source="20" target="4">
                    <mxGeometry relative="1" as="geometry"/>
                </mxCell>
                <mxCell id="22" style="edgeStyle=orthogonalEdgeStyle;rounded=0;orthogonalLoop=1;jettySize=auto;html=1;entryX=0.5;entryY=0;entryDx=0;entryDy=0;labelBackgroundColor=none;fontFamily=Helvetica;fontSize=16;fillColor=#e51400;strokeColor=#B20000;exitX=0.214;exitY=1.033;exitDx=0;exitDy=0;exitPerimeter=0;" edge="1" parent="1" source="20" target="5">
                    <mxGeometry relative="1" as="geometry"/>
                </mxCell>
                <mxCell id="23" style="edgeStyle=orthogonalEdgeStyle;rounded=0;orthogonalLoop=1;jettySize=auto;html=1;entryX=0.5;entryY=0;entryDx=0;entryDy=0;labelBackgroundColor=none;fontFamily=Helvetica;fontSize=16;exitX=0.879;exitY=0.983;exitDx=0;exitDy=0;exitPerimeter=0;fillColor=#1ba1e2;strokeColor=#006EAF;" edge="1" parent="1" source="20" target="9">
                    <mxGeometry relative="1" as="geometry">
                        <Array as="points">
                            <mxPoint x="483" y="220"/>
                            <mxPoint x="425" y="220"/>
                        </Array>
                    </mxGeometry>
                </mxCell>
                <mxCell id="20" value="&lt;font color=&quot;#cc0000&quot;&gt;[8,4,23,42,16,&lt;/font&gt;&lt;font color=&quot;#126994&quot;&gt;15&lt;/font&gt;&lt;font color=&quot;#cc0000&quot;&gt;]&lt;/font&gt;" style="text;html=1;align=center;verticalAlign=middle;resizable=0;points=[];autosize=1;fontSize=16;fontFamily=Helvetica;" vertex="1" parent="1">
                    <mxGeometry x="360" y="160" width="140" height="20" as="geometry"/>
                </mxCell>
                <mxCell id="28" style="edgeStyle=orthogonalEdgeStyle;rounded=0;orthogonalLoop=1;jettySize=auto;html=1;exitX=0.5;exitY=1;exitDx=0;exitDy=0;entryX=0.419;entryY=1.022;entryDx=0;entryDy=0;entryPerimeter=0;labelBackgroundColor=none;fontFamily=Helvetica;fontSize=16;" edge="1" parent="1" source="4" target="4">
                    <mxGeometry relative="1" as="geometry"/>
                </mxCell>
                <mxCell id="30" value="[4,8,15,16,23,42]" style="text;html=1;align=center;verticalAlign=middle;resizable=0;points=[];autosize=1;fontSize=16;fontFamily=Helvetica;fontColor=#171717;" vertex="1" parent="1">
                    <mxGeometry x="355" y="410" width="140" height="20" as="geometry"/>
                </mxCell>
                <mxCell id="31" value="&lt;font color=&quot;#cc0000&quot;&gt;Unsorted&lt;/font&gt;" style="text;html=1;align=center;verticalAlign=middle;resizable=0;points=[];autosize=1;fontSize=16;fontFamily=Helvetica;fontColor=#171717;" vertex="1" parent="1">
                    <mxGeometry x="385" y="130" width="80" height="20" as="geometry"/>
                </mxCell>
                <mxCell id="32" value="Sorted" style="text;html=1;align=center;verticalAlign=middle;resizable=0;points=[];autosize=1;fontSize=16;fontFamily=Helvetica;fontColor=#171717;" vertex="1" parent="1">
                    <mxGeometry x="400" y="380" width="60" height="20" as="geometry"/>
                </mxCell>
                <mxCell id="33" value="&lt;font color=&quot;#126994&quot;&gt;pivot = blue&lt;/font&gt;" style="rounded=0;whiteSpace=wrap;html=1;labelBackgroundColor=none;fontFamily=Helvetica;fontSize=16;fontColor=#171717;strokeColor=#FFFFFF;fillColor=#FFFFFF;" vertex="1" parent="1">
                    <mxGeometry x="570" y="120" width="100" height="50" as="geometry"/>
                </mxCell>
            </root>
        </mxGraphModel>
    </diagram>
</mxfile>